<?xml version="1.0" encoding="UTF-8"?>
<svg width="10px" height="16px" viewBox="0 0 10 16" version="1.1" xmlns="http://www.w3.org/2000/svg" xmlns:xlink="http://www.w3.org/1999/xlink">
    <title>bolsa</title>
    <g id="Symbols" stroke="none" stroke-width="1" fill="none" fill-rule="evenodd">
        <g id="producto/cpedidos" transform="translate(-598.000000, -156.000000)" fill="#FFFFFF" fill-rule="nonzero">
            <g id="Group-4-Copy" transform="translate(585.000000, 145.000000)">
                <g id="Group-3" transform="translate(0.000000, 0.000000)">
                    <g id="Group-20" transform="translate(13.457940, 11.520000)">
                        <g id="Group" transform="translate(0.000000, 0.000000)">
                            <g id="Icon/bolsa/inactive" transform="translate(0.000000, 0.000000)">
                                <g transform="translate(0.000000, 0.000000)" id="negocio">
                                    <path d="M8.91954343,3.81294518 L7.15619993,3.81294518 L7.15619993,2.9523458 C7.15619993,1.32189343 6.04551905,0 4.67558083,0 C3.30555313,0 2.19487224,1.32189343 2.19487224,2.9523458 L2.19487224,3.81294518 L0.285836347,3.81294518 C0.128241531,3.81347772 0.000447452531,3.96536074 0,4.15313754 L0,13.2617511 C0.000357966607,14.2009547 0.639954807,14.9621805 1.42900269,14.9625 L7.77915131,14.9625 C8.5682887,14.9621805 9.20788554,14.2009547 9.20806452,13.2617511 L9.20806452,4.15313754 C9.20627468,3.96472167 9.07767519,3.81326469 8.91954343,3.81294518 Z M2.76359169,2.94893749 C2.76359169,1.69414524 3.61841595,0.676763405 4.67262761,0.676763405 C5.72710774,0.676763405 6.58175303,1.69414524 6.58175303,2.94893749 L6.58175303,3.80953686 L2.76359169,3.80953686 L2.76359169,2.94893749 Z M8.63370711,13.2617511 C8.63227524,13.8247621 8.24925097,14.2806241 7.77637708,14.2822218 L1.42622845,14.2822218 C0.953175588,14.2806241 0.570151319,13.8247621 0.568808938,13.2617511 L0.568808938,4.4932234 L2.19200851,4.4932234 L2.19200851,5.87753159 C2.19200851,6.06541492 2.32007107,6.21772396 2.47775537,6.21772396 C2.63561864,6.21772396 2.76359169,6.06541492 2.76359169,5.87753159 L2.76359169,4.4932234 L6.58461676,4.4932234 L6.58461676,5.87753159 C6.58461676,6.06541492 6.71258981,6.21772396 6.87045309,6.21772396 C7.02813737,6.21772396 7.15619993,6.06541492 7.15619993,5.87753159 L7.15619993,4.4932234 L8.63370711,4.4932234 L8.63370711,13.2617511 Z" id="Shape"></path>
                                </g>
                            </g>
                        </g>
                    </g>
                </g>
            </g>
        </g>
    </g>
</svg>