<?xml version="1.0" encoding="utf-8"?>
<!-- Generator: Adobe Illustrator 24.1.0, SVG Export Plug-In . SVG Version: 6.00 Build 0)  -->
<svg version="1.1" id="Capa_1" xmlns="http://www.w3.org/2000/svg" xmlns:xlink="http://www.w3.org/1999/xlink" x="0px" y="0px"
	 viewBox="0 0 30 30" style="enable-background:new 0 0 30 30;" xml:space="preserve">
<style type="text/css">
	.st0{fill-rule:evenodd;clip-rule:evenodd;fill:#DA4E5C;}
	.st1{fill:none;}
</style>
<desc>Created with Sketch.</desc>
<g id="mas-copy">
	<g id="Group" transform="translate(11.000000, 11.000000)">
		<path id="Rectangle" class="st0" d="M6.8,1.2L6.8,1.2c0.3,0.3,0.3,0.7,0,0.9L2.1,6.8c-0.3,0.3-0.7,0.3-0.9,0l0,0
			c-0.3-0.3-0.3-0.7,0-0.9l4.7-4.7C6.1,0.9,6.6,0.9,6.8,1.2z"/>
		<path id="Rectangle_1_" class="st0" d="M1.2,1.2c0.3-0.3,0.7-0.3,0.9,0l4.7,4.7c0.3,0.3,0.3,0.7,0,0.9c-0.3,0.3-0.7,0.3-0.9,0
			L1.2,2.1C0.9,1.9,0.9,1.4,1.2,1.2z"/>
	</g>
	<circle id="Oval" class="st1" cx="15" cy="15" r="15"/>
</g>
</svg>
