<?xml version="1.0" encoding="UTF-8"?>
<svg width="15px" height="14px" viewBox="0 0 15 14" version="1.1" xmlns="http://www.w3.org/2000/svg" xmlns:xlink="http://www.w3.org/1999/xlink">
    <!-- Generator: Sketch 62 (91390) - https://sketch.com -->
    <title>editar</title>
    <desc>Created with Sketch.</desc>
    <g id="Page-1" stroke="none" stroke-width="1" fill="none" fill-rule="evenodd">
        <g id="desplegable/editar" transform="translate(-1133.000000, -69.000000)" fill="#FF596A" fill-rule="nonzero">
            <g id="Group-4" transform="translate(1125.000000, 61.000000)">
                <g id="Group-25">
                    <g id="Group-24">
                        <path d="M12.235138,11.7950889 C11.6775541,11.9526899 11.234122,12.3760544 11.050886,12.9257474 L8.5,20.5781319 L8.90167773,20.9798097 L13.006228,16.8752594 C12.9244706,16.7040884 12.8749786,16.5148705 12.8749786,16.3125278 C12.8749786,15.5876485 13.462593,15.0000342 14.1874722,15.0000342 C14.9123515,15.0000342 15.4999658,15.5876485 15.4999658,16.3125278 C15.4999658,17.037407 14.9123515,17.6250214 14.1874722,17.6250214 C13.9851295,17.6250214 13.7959116,17.5755294 13.6247406,17.493772 L9.52019033,21.5983223 L9.92186806,22 L17.5742526,19.449114 C18.1239456,19.265878 18.5473101,18.8224459 18.7049111,18.264862 L19.8749445,14.1250385 L16.3749615,10.6250555 L12.235138,11.7950889 Z M22.1154804,10.0281444 L20.4718556,8.38451961 C19.9591628,7.8718268 19.1276434,7.8718268 18.6149506,8.38451961 L17.0686691,9.93080112 L20.5691989,13.4313309 L22.1154804,11.8850494 C22.6281732,11.3723566 22.6281732,10.5411106 22.1154804,10.0281444 L22.1154804,10.0281444 Z" id="editar"></path>
                    </g>
                </g>
            </g>
        </g>
    </g>
</svg>