<?xml version="1.0" encoding="UTF-8"?>
<svg width="14px" height="15px" viewBox="0 0 14 15" version="1.1" xmlns="http://www.w3.org/2000/svg" xmlns:xlink="http://www.w3.org/1999/xlink">
    <title>filtrosSVG</title>
    <g id="Page-1" stroke="none" stroke-width="1" fill="none" fill-rule="evenodd">
        <g id="INVENTARIO/CREAR-CATALOGO" transform="translate(-1085.000000, -68.000000)" fill="#EB4555" fill-rule="nonzero">
            <g id="Group-13-Copy" transform="translate(1073.000000, 61.000000)">
                <g id="Group-2" transform="translate(12.700000, 7.700000)">
                    <g id="Group" transform="translate(-0.700000, 0.700000)">
                        <g id="adjust" transform="translate(7.000000, 6.300000) rotate(-90.000000) translate(-7.000000, -6.300000) ">
                            <path d="M13.4166758,10.1243817 L11.86325,10.1243817 C11.6106758,9.3371122 10.8383242,8.75853659 9.91667578,8.75853659 C8.99502734,8.75853659 8.22325,9.3371122 7.97010156,10.1243817 L0.583324219,10.1243817 C0.261324219,10.1243817 0,10.3691598 0,10.6707402 C0,10.9723207 0.261324219,11.2170732 0.583324219,11.2170732 L7.97007422,11.2170732 C8.22264844,12.0043427 8.995,12.5829183 9.91664844,12.5829183 C10.8382969,12.5829183 11.6100742,12.0043427 11.8632227,11.2170732 L13.4166484,11.2170732 C13.7392227,11.2170732 13.9999727,10.9723207 13.9999727,10.6707402 C13.9999727,10.3691598 13.73925,10.1243817 13.4166758,10.1243817 Z M9.91667578,11.4902524 C9.43425,11.4902524 9.04167578,11.1225732 9.04167578,10.6707402 C9.04167578,10.2189073 9.43425,9.85122805 9.91667578,9.85122805 C10.3991016,9.85122805 10.7916758,10.2189073 10.7916758,10.6707402 C10.7916758,11.1225732 10.3990742,11.4902524 9.91667578,11.4902524 Z" id="Shape"></path>
                            <path d="M13.4166758,1.38292683 L11.86325,1.38292683 C11.6100742,0.595657317 10.8383242,0.0170817073 9.91667578,0.0170817073 C8.99502734,0.0170817073 8.22325,0.595657317 7.97007422,1.38292683 L0.583324219,1.38292683 C0.261324219,1.38292683 0,1.62767927 0,1.92925976 C0,2.23084024 0.261324219,2.47559268 0.583324219,2.47559268 L7.97007422,2.47559268 C8.22325,3.2628878 8.995,3.84146341 9.91667578,3.84146341 C10.8383516,3.84146341 11.6101016,3.2628878 11.86325,2.47561829 L13.4166758,2.47561829 C13.73925,2.47561829 14,2.23086585 14,1.92928537 C14,1.62770488 13.73925,1.38292683 13.4166758,1.38292683 Z M9.91667578,2.74877195 C9.43425,2.74877195 9.04167578,2.38109268 9.04167578,1.92925976 C9.04167578,1.47742683 9.43425,1.10974756 9.91667578,1.10974756 C10.3991016,1.10974756 10.7916758,1.47742683 10.7916758,1.92925976 C10.7916758,2.38109268 10.3990742,2.74877195 9.91667578,2.74877195 Z" id="Shape"></path>
                            <path d="M13.4166758,5.75366707 L6.02992578,5.75366707 C5.77675,4.96639756 5.005,4.38782195 4.08335156,4.38782195 C3.16170313,4.38782195 2.38992578,4.96639756 2.13677734,5.75366707 L0.583324219,5.75366707 C0.261324219,5.75366707 0,5.99841951 0,6.3 C0,6.60158049 0.261324219,6.84633293 0.583324219,6.84633293 L2.13675,6.84633293 C2.38992578,7.63360244 3.16167578,8.21217805 4.08332422,8.21217805 C5.00497266,8.21217805 5.77675,7.63360244 6.02989844,6.84633293 L13.4166484,6.84633293 C13.7392227,6.84633293 13.9999727,6.60158049 13.9999727,6.3 C13.9999727,5.99841951 13.73925,5.75366707 13.4166758,5.75366707 Z M4.08332422,7.1195122 C3.60089844,7.1195122 3.20832422,6.75183293 3.20832422,6.3 C3.20832422,5.84816707 3.60089844,5.4804878 4.08332422,5.4804878 C4.56575,5.4804878 4.95832422,5.84816707 4.95832422,6.3 C4.95832422,6.75183293 4.56575,7.1195122 4.08332422,7.1195122 Z" id="Shape"></path>
                        </g>
                    </g>
                </g>
            </g>
        </g>
    </g>
</svg>