<?xml version="1.0" encoding="UTF-8"?>
<svg width="41px" height="40px" viewBox="0 0 41 40" version="1.1" xmlns="http://www.w3.org/2000/svg" xmlns:xlink="http://www.w3.org/1999/xlink">
    <!-- Generator: Sketch 62 (91390) - https://sketch.com -->
    <title>Group 46iniciales</title>
    <desc>Created with Sketch.</desc>
    <g id="Page-1" stroke="none" stroke-width="1" fill="none" fill-rule="evenodd">
        <g id="USUARIOS/CLIENTES-inicio" transform="translate(-463.000000, -342.000000)">
            <g id="Group-46" transform="translate(463.000000, 342.000000)">
                <rect id="Rectangle-Copy-26" fill="#2EB07B" x="0" y="0" width="40.2919708" height="40" rx="20"></rect>
                <path d="M13.52,25.08 C14.24,25.08 14.9066667,25.0033333 15.52,24.85 C16.1333333,24.6966667 16.6633333,24.46 17.11,24.14 C17.5566667,23.82 17.9066667,23.42 18.16,22.94 C18.4133333,22.46 18.54,21.8933333 18.54,21.24 C18.54,20.36 18.3033333,19.6633333 17.83,19.15 C17.3566667,18.6366667 16.76,18.3 16.04,18.14 L16.04,18.14 L16.04,18.06 C16.6133333,17.86 17.06,17.4933333 17.38,16.96 C17.7,16.4266667 17.86,15.8466667 17.86,15.22 C17.86,14.62 17.7433333,14.1133333 17.51,13.7 C17.2766667,13.2866667 16.95,12.9566667 16.53,12.71 C16.11,12.4633333 15.6166667,12.2833333 15.05,12.17 C14.4833333,12.0566667 13.86,12 13.18,12 L13.18,12 L9,12 L9,25.08 L13.52,25.08 Z M12.98,17.4 L11.32,17.4 L11.32,13.8 L13.02,13.8 C13.8733333,13.8 14.5133333,13.9333333 14.94,14.2 C15.3666667,14.4666667 15.58,14.92 15.58,15.56 C15.58,16.12 15.3766667,16.5666667 14.97,16.9 C14.5633333,17.2333333 13.9,17.4 12.98,17.4 L12.98,17.4 Z M13.28,23.28 L11.32,23.28 L11.32,19.14 L13.28,19.14 C14.2666667,19.14 15.0133333,19.2966667 15.52,19.61 C16.0266667,19.9233333 16.28,20.4266667 16.28,21.12 C16.28,21.8533333 16.02,22.3966667 15.5,22.75 C14.98,23.1033333 14.24,23.28 13.28,23.28 L13.28,23.28 Z M22.6055556,25.08 L23.6255556,21.54 L28.0255556,21.54 L29.0455556,25.08 L31.4855556,25.08 L27.2255556,12 L24.5055556,12 L20.2455556,25.08 L22.6055556,25.08 Z M27.5055556,19.72 L24.1655556,19.72 L24.6255556,18.12 C24.8388889,17.4266667 25.0388889,16.7166667 25.2255556,15.99 C25.4122222,15.2633333 25.5988889,14.5333333 25.7855556,13.8 L25.7855556,13.8 L25.8655556,13.8 C26.0522222,14.52 26.2422222,15.2466667 26.4355556,15.98 C26.6288889,16.7133333 26.8322222,17.4266667 27.0455556,18.12 L27.0455556,18.12 L27.5055556,19.72 Z" id="BA-Copy" fill="#FFFFFF" fill-rule="nonzero"></path>
            </g>
        </g>
    </g>
</svg>