<?xml version="1.0" encoding="UTF-8"?>
<svg width="41px" height="40px" viewBox="0 0 41 40" version="1.1" xmlns="http://www.w3.org/2000/svg" xmlns:xlink="http://www.w3.org/1999/xlink">
    <!-- Generator: Sketch 62 (91390) - https://sketch.com -->
    <title>Group 38iniciales</title>
    <desc>Created with Sketch.</desc>
    <g id="Page-1" stroke="none" stroke-width="1" fill="none" fill-rule="evenodd">
        <g id="USUARIOS/CLIENTES-inicio" transform="translate(-463.000000, -182.000000)">
            <g id="Group-38" transform="translate(463.000000, 182.000000)">
                <rect id="Rectangle-Copy-26" fill="#FF596A" x="0" y="0" width="40.2919708" height="40" rx="20"></rect>
                <path d="M11.62,26.08 C12.5933333,26.08 13.4633333,25.94 14.23,25.66 C14.9966667,25.38 15.65,24.9633333 16.19,24.41 C16.73,23.8566667 17.1433333,23.1666667 17.43,22.34 C17.7166667,21.5133333 17.86,20.56 17.86,19.48 C17.86,17.32 17.3,15.7 16.18,14.62 C15.06,13.54 13.5,13 11.5,13 L11.5,13 L8,13 L8,26.08 L11.62,26.08 Z M11.34,24.2 L10.32,24.2 L10.32,14.88 L11.34,14.88 C12.66,14.88 13.68,15.2466667 14.4,15.98 C15.12,16.7133333 15.48,17.88 15.48,19.48 C15.48,21.0933333 15.1233333,22.2833333 14.41,23.05 C13.6966667,23.8166667 12.6733333,24.2 11.34,24.2 L11.34,24.2 Z M23.6055556,26.08 L23.6055556,20.1 C23.6055556,19.7933333 23.5955556,19.46 23.5755556,19.1 C23.5555556,18.74 23.5288889,18.3766667 23.4955556,18.01 C23.4622222,17.6433333 23.4288889,17.2833333 23.3955556,16.93 C23.3622222,16.5766667 23.3322222,16.2466667 23.3055556,15.94 L23.3055556,15.94 L23.3855556,15.94 L24.4255556,18.98 L26.5855556,24.86 L27.9655556,24.86 L30.1055556,18.98 L31.1655556,15.94 L31.2455556,15.94 C31.2188889,16.2466667 31.1855556,16.5766667 31.1455556,16.93 C31.1055556,17.2833333 31.0722222,17.6433333 31.0455556,18.01 C31.0188889,18.3766667 30.9955556,18.74 30.9755556,19.1 C30.9555556,19.46 30.9455556,19.7933333 30.9455556,20.1 L30.9455556,20.1 L30.9455556,26.08 L33.0855556,26.08 L33.0855556,13 L30.4455556,13 L28.1855556,19.4 C28.0388889,19.8133333 27.9022222,20.2366667 27.7755556,20.67 C27.6488889,21.1033333 27.5122222,21.5333333 27.3655556,21.96 L27.3655556,21.96 L27.2855556,21.96 C27.1388889,21.5333333 26.9988889,21.1033333 26.8655556,20.67 C26.7322222,20.2366667 26.5922222,19.8133333 26.4455556,19.4 L26.4455556,19.4 L24.1255556,13 L21.5055556,13 L21.5055556,26.08 L23.6055556,26.08 Z" id="DM-Copy-4" fill="#FFFFFF" fill-rule="nonzero"></path>
            </g>
        </g>
    </g>
</svg>