<?xml version="1.0" encoding="UTF-8"?>
<svg width="14px" height="9px" viewBox="0 0 14 9" version="1.1" xmlns="http://www.w3.org/2000/svg" xmlns:xlink="http://www.w3.org/1999/xlink">
    <title>ojo</title>
    <g id="Symbols" stroke="none" stroke-width="1" fill="none" fill-rule="evenodd">
        <g id="producto/cpedidos" transform="translate(-595.000000, -115.000000)" fill="#FFFFFF" fill-rule="nonzero">
            <g id="Group-5-Copy" transform="translate(585.000000, 101.000000)">
                <g id="eye" transform="translate(10.000000, 14.000000)">
                    <path d="M13.9110368,4.22534926 C13.7859662,4.05278415 10.8059535,0 6.99993848,0 C3.19392342,0 0.213774064,4.05278415 0.088840104,4.22518379 C-0.029613368,4.38889587 -0.029613368,4.61093865 0.088840104,4.77465074 C0.213774064,4.94721585 3.19392342,9 6.99993848,9 C10.8059535,9 13.7859662,4.94718827 13.9110368,4.77478863 C14.0296544,4.61110413 14.0296544,4.38889587 13.9110368,4.22534926 Z M6.99993848,8.06897027 C4.19640292,8.06897027 1.76824346,5.37905611 1.0494562,4.49968284 C1.76731377,3.61953734 4.19038728,0.931029728 6.99993848,0.931029728 C9.80333731,0.931029728 12.2313327,3.62047504 12.9504208,4.50031716 C12.2325632,5.38043508 9.80948968,8.06897027 6.99993848,8.06897027 Z" id="Shape"></path>
                    <path d="M7,1.63636364 C5.41070005,1.63636364 4.11764706,2.92102017 4.11764706,4.5 C4.11764706,6.07897983 5.41070005,7.36363636 7,7.36363636 C8.58929995,7.36363636 9.88235294,6.07897983 9.88235294,4.5 C9.88235294,2.92102017 8.58929995,1.63636364 7,1.63636364 Z M7,6.40907206 C5.94040978,6.40907206 5.07845035,5.55268149 5.07845035,4.5 C5.07845035,3.44731851 5.94043824,2.59092794 7,2.59092794 C8.05956176,2.59092794 8.92154965,3.44731851 8.92154965,4.5 C8.92154965,5.55268149 8.05959022,6.40907206 7,6.40907206 Z" id="Shape"></path>
                </g>
            </g>
        </g>
    </g>
</svg>