<?xml version="1.0" encoding="UTF-8"?>
<svg width="100px" height="82px" viewBox="0 0 100 82" version="1.1" xmlns="http://www.w3.org/2000/svg" xmlns:xlink="http://www.w3.org/1999/xlink">
    <title>BC131F3D-B25D-4514-B76E-2A00B999EF18</title>
    <g id="Page-1" stroke="none" stroke-width="1" fill="none" fill-rule="evenodd" opacity="0.126278832">
        <g id="USUARIOS/INTERNA-VENDOR" transform="translate(-673.000000, -255.000000)">
            <g id="Group-8" transform="translate(248.000000, 134.000000)">
                <g id="Group-15-Copy" transform="translate(252.000000, 61.000000)">
                    <g id="perdidas" transform="translate(173.985507, 60.228571)">
                        <path d="M98.5326087,45.6142857 C98.5326087,64.9368119 82.8346379,80.6 63.4692029,80.6 C44.1037678,80.6 28.4057971,64.9368119 28.4057971,45.6142857 C28.4057971,42.3645431 28.8502024,39.2176367 29.6807592,36.2336354 C30.9333159,31.7321673 33.0633832,27.5975274 35.8759372,24.0241129 C42.2961428,15.8670003 52.269448,10.6285714 63.4692029,10.6285714 C82.8346379,10.6285714 98.5326087,26.2917595 98.5326087,45.6142857 Z" id="Path" fill="#FEC007" fill-rule="nonzero"></path>
                        <path d="M35.5072464,23.9142857 L35.5072464,31.9231702 C35.5072464,34.3439007 33.5587753,36.3142857 31.161048,36.3142857 L29.2934783,36.3142857 C30.5497936,31.7427161 32.6862527,27.5435059 35.5072464,23.9142857 Z" id="Path" fill="#FE9700" fill-rule="nonzero"></path>
                        <g id="Group" transform="translate(31.068841, 13.285714)" fill="#FCE790" fill-rule="nonzero">
                            <path d="M63.1350337,33.3913751 C62.3021883,33.3913751 61.6270506,32.724954 61.6270506,31.9028613 C61.6270506,15.9985367 48.5187618,3.05948727 32.406413,3.05948727 C31.5735675,3.05948727 30.8984299,2.39306621 30.8984299,1.5709735 C30.8984299,0.748880794 31.5735675,0.0824597324 32.406413,0.0824597324 C50.1817202,0.0824597324 64.643212,14.3572413 64.643212,31.9030539 C64.643212,32.724954 63.9678792,33.3913751 63.1350337,33.3913751 Z" id="Path"></path>
                            <path d="M32.4062178,63.7234555 C14.6309106,63.7234555 0.169418762,49.448674 0.169418762,31.9028613 C0.169418762,31.0805759 0.844556432,30.4143475 1.67740189,30.4143475 C2.51024735,30.4143475 3.18538502,31.0807686 3.18538502,31.9028613 C3.18538502,47.8071858 16.2936738,60.7462353 32.4060226,60.7462353 C33.2388681,60.7462353 33.9140058,61.4126564 33.9140058,62.2347491 C33.9140058,63.0568418 33.2390633,63.7234555 32.4062178,63.7234555 Z" id="Path"></path>
                        </g>
                        <ellipse id="Oval" stroke="#FF596A" stroke-width="7" cx="27.0742754" cy="27.0142857" rx="23.5742754" ry="23.5142857"></ellipse>
                        <g id="Group-2" transform="translate(27.074275, 27.457143) rotate(-315.000000) translate(-27.074275, -27.457143) translate(12.427536, 13.285714)" fill="#FF596A">
                            <rect id="Rectangle" x="11.5398551" y="0" width="6.21376812" height="28.3428571" rx="3.10688406"></rect>
                            <path d="M14.6467391,-0.0314699793 C16.3588219,-0.0314699793 17.7467391,1.3564473 17.7467391,3.06853002 L17.7467391,25.2743271 C17.7467391,26.9864098 16.3588219,28.3743271 14.6467391,28.3743271 C12.9346564,28.3743271 11.5467391,26.9864098 11.5467391,25.2743271 L11.5467391,3.06853002 C11.5467391,1.3564473 12.9346564,-0.0314699793 14.6467391,-0.0314699793 Z" id="Rectangle-Copy-2" transform="translate(14.646739, 14.171429) rotate(-90.000000) translate(-14.646739, -14.171429) "></path>
                        </g>
                        <ellipse id="Oval" fill="#FE9700" fill-rule="nonzero" cx="63.9130435" cy="46.0571429" rx="23.9673913" ry="23.9142857"></ellipse>
                        <ellipse id="Oval" fill="#FCE790" fill-rule="nonzero" cx="63.4692029" cy="45.6142857" rx="19.9728261" ry="19.9285714"></ellipse>
                        <g id="Group" transform="translate(56.811594, 32.771429)" fill="#FE9700" fill-rule="nonzero">
                            <path d="M7.10720721,23.0040081 C3.27088915,23.0040081 0.149706228,20.3889671 0.149706228,17.1747234 C0.149706228,16.337879 0.81359577,15.6598545 1.63256561,15.6598545 C2.45153545,15.6598545 3.11542499,16.338075 3.11542499,17.1747234 C3.11542499,18.6921413 4.94337642,19.9742702 7.10701528,19.9742702 C9.19925578,19.9742702 10.977689,18.7754728 11.0928476,17.324328 C10.5922914,16.5835599 7.97204857,15.0888866 6.38401097,14.183024 C2.4024011,11.9115049 0.149706228,10.5297703 0.149706228,8.54608811 C0.149706228,5.33184449 3.27088915,2.71680349 7.10720721,2.71680349 C10.9435253,2.71680349 14.0647082,5.33184449 14.0647082,8.54608811 C14.0647082,9.38293261 13.4008186,10.060957 12.5818488,10.060957 C11.762879,10.060957 11.0989894,9.38273653 11.0989894,8.54608811 C11.0989894,7.02867023 9.27103799,5.74654133 7.10739914,5.74654133 C5.01515864,5.74654133 3.23672542,6.94533871 3.12156678,8.39648353 C3.62212299,9.13705562 6.24217391,10.6315328 7.83021152,11.5375915 C11.8120133,13.8091106 14.0649001,15.1908451 14.0649001,17.1747234 C14.0647082,20.3889671 10.9437172,23.0040081 7.10720721,23.0040081 Z" id="Path"></path>
                            <path d="M7.10720721,25.560619 C6.28823737,25.560619 5.62434783,24.8823985 5.62434783,24.0457501 L5.62434783,1.67486543 C5.62434783,0.838020938 6.28823737,0.15999651 7.10720721,0.15999651 C7.92617705,0.15999651 8.59006663,0.838217012 8.59006663,1.67486543 L8.59006663,24.0459461 C8.59025852,24.8825945 7.92617705,25.560619 7.10720721,25.560619 Z" id="Path"></path>
                        </g>
                    </g>
                </g>
            </g>
        </g>
    </g>
</svg>