<?xml version="1.0" encoding="UTF-8"?>
<svg width="101px" height="91px" viewBox="0 0 101 91" version="1.1" xmlns="http://www.w3.org/2000/svg" xmlns:xlink="http://www.w3.org/1999/xlink">
    <title>1D6070FE-B2EB-4B08-B6CC-106C0B5F8E93</title>
    <g id="Page-1" stroke="none" stroke-width="1" fill="none" fill-rule="evenodd" opacity="0.12609282">
        <g id="USUARIOS/INTERNA-VENDOR" transform="translate(-934.000000, -246.000000)" fill-rule="nonzero">
            <g id="Group-8" transform="translate(248.000000, 134.000000)">
                <g id="Group-15-Copy-2" transform="translate(507.000000, 61.000000)">
                    <g id="proximas" transform="translate(180.175182, 52.257143)">
                        <path d="M98.919708,53.5857143 C98.919708,72.9082405 83.3007767,88.5714286 64.0328467,88.5714286 C44.7649168,88.5714286 29.1459854,72.9082405 29.1459854,53.5857143 C29.1459854,50.3359716 29.5881532,47.1890652 30.414528,44.2050639 C31.6607782,39.7035959 33.7801206,35.5689559 36.5785132,31.9955415 C42.9663931,23.8384289 52.8894827,18.6 64.0328467,18.6 C83.3007767,18.6 98.919708,34.2631881 98.919708,53.5857143 Z" id="Path" fill="#FEC007"></path>
                        <path d="M36.2116788,31.8857143 L36.2116788,39.8945988 C36.2116788,42.3153293 34.2730184,44.2857143 31.8873636,44.2857143 L30.0291971,44.2857143 C31.2791869,39.7141447 33.4048889,35.5149344 36.2116788,31.8857143 Z" id="Path" fill="#FE9700"></path>
                        <g id="Group" transform="translate(31.795620, 21.257143)" fill="#FCE790">
                            <path d="M62.8171484,33.3913751 C61.9884963,33.3913751 61.316758,32.724954 61.316758,31.9028613 C61.316758,15.9985367 48.2744695,3.05948727 32.2432465,3.05948727 C31.4145944,3.05948727 30.7428561,2.39306621 30.7428561,1.5709735 C30.7428561,0.748880794 31.4145944,0.0824597324 32.2432465,0.0824597324 C49.9290549,0.0824597324 64.317733,14.3572413 64.317733,31.9030539 C64.317733,32.724954 63.6458005,33.3913751 62.8171484,33.3913751 Z" id="Path"></path>
                            <path d="M32.2430523,63.7234555 C14.5572439,63.7234555 0.168565737,49.448674 0.168565737,31.9028613 C0.168565737,31.0805759 0.840304085,30.4143475 1.66895616,30.4143475 C2.49760824,30.4143475 3.16934658,31.0807686 3.16934658,31.9028613 C3.16934658,47.8071858 16.211635,60.7462353 32.2428581,60.7462353 C33.0715102,60.7462353 33.7432485,61.4126564 33.7432485,62.2347491 C33.7432485,63.0568418 33.0717044,63.7234555 32.2430523,63.7234555 Z" id="Path"></path>
                        </g>
                        <ellipse id="Oval" fill="#FE9700" cx="64.4744526" cy="54.0285714" rx="23.8467153" ry="23.9142857"></ellipse>
                        <ellipse id="Oval" fill="#FCE790" cx="64.0328467" cy="53.5857143" rx="19.8722628" ry="19.9285714"></ellipse>
                        <g id="Group" transform="translate(57.408759, 40.742857)" fill="#FE9700">
                            <path d="M7.07142237,23.0040081 C3.2544202,23.0040081 0.148952456,20.3889671 0.148952456,17.1747234 C0.148952456,16.337879 0.80949931,15.6598545 1.62434563,15.6598545 C2.43919195,15.6598545 3.0997388,16.338075 3.0997388,17.1747234 C3.0997388,18.6921413 4.91848649,19.9742702 7.07123141,19.9742702 C9.15293746,19.9742702 10.9224163,18.7754728 11.0369951,17.324328 C10.5389592,16.5835599 7.93190925,15.0888866 6.35186743,14.183024 C2.39030499,11.9115049 0.148952456,10.5297703 0.148952456,8.54608811 C0.148952456,5.33184449 3.2544202,2.71680349 7.07142237,2.71680349 C10.8884245,2.71680349 13.9938923,5.33184449 13.9938923,8.54608811 C13.9938923,9.38293261 13.3333454,10.060957 12.5184991,10.060957 C11.7036528,10.060957 11.0431059,9.38273653 11.0431059,8.54608811 C11.0431059,7.02867023 9.22435826,5.74654133 7.07161334,5.74654133 C4.98990728,5.74654133 3.22042849,6.94533871 3.10584967,8.39648353 C3.60388558,9.13705562 6.21074453,10.6315328 7.79078635,11.5375915 C11.7525398,13.8091106 13.9940833,15.1908451 13.9940833,17.1747234 C13.9938923,20.3889671 10.8886155,23.0040081 7.07142237,23.0040081 Z" id="Path"></path>
                            <path d="M7.07142237,25.560619 C6.25657605,25.560619 5.5960292,24.8823985 5.5960292,24.0457501 L5.5960292,1.67486543 C5.5960292,0.838020938 6.25657605,0.15999651 7.07142237,0.15999651 C7.88626869,0.15999651 8.54681559,0.838217012 8.54681559,1.67486543 L8.54681559,24.0459461 C8.54700651,24.8825945 7.88626869,25.560619 7.07142237,25.560619 Z" id="Path"></path>
                        </g>
                        <g id="Group" transform="translate(21.197080, 32.771429) rotate(-180.000000) translate(-21.197080, -32.771429) translate(0.000000, 0.000000)" fill="#FF596A">
                            <path d="M41.8222248,20.1001299 L22.1962336,0.524342857 C21.6088818,-0.0615064935 20.6567474,-0.0615064935 20.0695883,0.524342857 L0.44340438,20.1001299 C-0.503912409,21.0450234 0.167071533,22.6607221 1.50672701,22.6607221 L8.35608175,22.6607221 L8.35608175,39.8039273 C8.35608175,40.6323429 9.0293781,41.3039169 9.85991825,41.3039169 L32.4057109,41.3039169 C33.2362511,41.3039169 33.9095474,40.6323429 33.9095474,39.8039273 L33.9095474,22.6607221 L40.7589022,22.6607221 C42.0985577,22.6607221 42.7695416,21.0450234 41.8222248,20.1001299 Z" id="Path"></path>
                            <path d="M16.548946,56.8462234 C15.726692,56.8462234 15.0601401,56.1813766 15.0601401,55.361226 L15.0601401,46.0741299 C15.0601401,45.253787 15.726692,44.5891325 16.548946,44.5891325 C17.3712,44.5891325 18.0377519,45.2539792 18.0377519,46.0741299 L18.0377519,55.361226 C18.0379445,56.1813766 17.3712,56.8462234 16.548946,56.8462234 Z" id="Path"></path>
                            <path d="M21.1327182,65.4244571 C20.3104642,65.4244571 19.6439124,64.7596104 19.6439124,63.9394597 L19.6439124,46.0741299 C19.6439124,45.253787 20.3104642,44.5891325 21.1327182,44.5891325 C21.9549723,44.5891325 22.6215241,45.2539792 22.6215241,46.0741299 L22.6215241,63.9394597 C22.6217168,64.7596104 21.955165,65.4244571 21.1327182,65.4244571 Z" id="Path"></path>
                            <path d="M25.7166832,56.8462234 C24.8944292,56.8462234 24.2278774,56.1813766 24.2278774,55.361226 L24.2278774,46.0741299 C24.2278774,45.253787 24.8944292,44.5891325 25.7166832,44.5891325 C26.5389372,44.5891325 27.2054891,45.2539792 27.2054891,46.0741299 L27.2054891,55.361226 C27.2056818,56.1813766 26.5389372,56.8462234 25.7166832,56.8462234 Z" id="Path"></path>
                        </g>
                    </g>
                </g>
            </g>
        </g>
    </g>
</svg>