<?xml version="1.0" encoding="UTF-8"?>
<svg width="16px" height="14px" viewBox="0 0 16 14" version="1.1" xmlns="http://www.w3.org/2000/svg" xmlns:xlink="http://www.w3.org/1999/xlink">
    <!-- Generator: Sketch 62 (91390) - https://sketch.com -->
    <title>shop</title>
    <desc>Created with Sketch.</desc>
    <g id="Symbols" stroke="none" stroke-width="1" fill="none" fill-rule="evenodd">
        <g id="btn/store" transform="translate(-7.000000, -8.000000)" fill="#FFFFFF" fill-rule="nonzero">
            <g id="shop" transform="translate(7.000000, 8.000000)">
                <path d="M11.0037736,7 L8.99622642,7 C8.44679245,7 8,7.50598291 8,8.12820513 L8,9.87179487 C8,10.4940171 8.44679245,11 8.99622642,11 L11.0037736,11 C11.5532075,11 12,10.4940171 12,9.87179487 L12,8.12820513 C12,7.50598291 11.5532075,7 11.0037736,7 Z M11.2754717,9.87179487 C11.2754717,10.042735 11.1516981,10.1794872 11.0037736,10.1794872 L8.99622642,10.1794872 C8.84528302,10.1794872 8.7245283,10.0393162 8.7245283,9.87179487 L8.7245283,8.12820513 C8.7245283,7.95726496 8.84830189,7.82051282 8.99622642,7.82051282 L11.0037736,7.82051282 C11.154717,7.82051282 11.2754717,7.96068376 11.2754717,8.12820513 L11.2754717,9.87179487 Z" id="Shape"></path>
                <path d="M16,4.58694126 C16,4.51813714 15.9836535,4.45260941 15.9476911,4.39363445 L13.5676338,0.199859583 C13.4989783,0.0786332787 13.368206,0 13.2276257,0 L2.76910503,0 C2.62852472,0 2.49775235,0.0753568921 2.42909685,0.199859583 L0.0523089497,4.39363445 C0.0196158562,4.45260941 0,4.51813714 0,4.58694126 C0,5.52726422 0.565590519,6.33325532 1.37310993,6.69038147 L1.37310993,13.6068336 C1.37310993,13.8230751 1.54965264,14 1.76542705,14 L3.93297916,14 C3.93624847,14 3.93951778,14 3.94278709,14 L6.98324479,14 C6.9865141,14 6.98978341,14 6.99305272,14 L14.2313036,14 C14.4470781,14 14.6236208,13.8230751 14.6236208,13.6068336 L14.6236208,6.73952726 C14.6236208,6.72314533 14.6236208,6.71003978 14.6203515,6.69693424 C15.4311402,6.3398081 16,5.5305406 16,4.58694126 Z M2.99795668,0.789609174 L12.998774,0.789609174 L14.859011,4.06927217 L1.14098897,4.06927217 L2.99795668,0.789609174 Z M11.3870045,4.85232857 C11.2627707,5.56002808 10.6448713,6.09735549 9.90273805,6.09735549 C9.16060482,6.09735549 8.54270535,5.56002808 8.4184716,4.85232857 L11.3870045,4.85232857 Z M7.58479771,4.85232857 C7.46056396,5.56002808 6.84266449,6.09735549 6.10053126,6.09735549 C5.35839804,6.09735549 4.74049857,5.56002808 4.6129955,4.85232857 L7.58479771,4.85232857 Z M0.810788721,4.85232857 L3.78259093,4.85232857 C3.65835717,5.56002808 3.03718839,6.09735549 2.29505517,6.09735549 C1.55292195,6.10063187 0.935022477,5.56002808 0.810788721,4.85232857 Z M6.59092767,13.2136672 L4.33510421,13.2136672 L4.33510421,8.97074655 C4.33510421,8.66276621 4.58357172,8.41048444 4.89415611,8.41048444 L6.03514508,8.41048444 C6.34246016,8.41048444 6.59419698,8.65948982 6.59419698,8.97074655 L6.59419698,13.2136672 L6.59092767,13.2136672 Z M13.8389865,13.2136672 L7.37556191,13.2136672 L7.37556191,8.97074655 C7.37556191,8.23028317 6.77400899,7.62415165 6.03187577,7.62415165 L4.8908868,7.62415165 C4.15202289,7.62415165 3.54720065,8.22700679 3.54720065,8.97074655 L3.54720065,13.2169436 L2.15774418,13.2169436 L2.15774418,6.88368828 C2.20351451,6.88696466 2.24928484,6.88696466 2.29505517,6.88696466 C3.08622803,6.88696466 3.78586024,6.48396911 4.19779322,5.87128481 C4.6097262,6.48396911 5.3093584,6.88696466 6.10053126,6.88696466 C6.89170413,6.88696466 7.58806702,6.48396911 8.00326931,5.87128481 C8.41520229,6.48396911 9.11483449,6.88696466 9.90273805,6.88696466 C10.6939109,6.88696466 11.3902738,6.48396911 11.8022068,5.87128481 C12.2141398,6.48396911 12.913772,6.88696466 13.7049448,6.88696466 C13.7507152,6.88696466 13.7932162,6.88368828 13.8389865,6.88368828 L13.8389865,13.2136672 L13.8389865,13.2136672 Z M13.7049448,6.10063187 C12.9628116,6.10063187 12.3449121,5.56330447 12.2206784,4.85560496 L15.1924806,4.85560496 C15.0649775,5.56002808 14.4470781,6.10063187 13.7049448,6.10063187 Z" id="Shape"></path>
            </g>
        </g>
    </g>
</svg>