<?xml version="1.0" encoding="UTF-8"?>
<svg width="30px" height="30px" viewBox="0 0 30 30" version="1.1" xmlns="http://www.w3.org/2000/svg" xmlns:xlink="http://www.w3.org/1999/xlink">
    <title>wa</title>
    <defs>
        <linearGradient x1="50%" y1="0%" x2="-13.3944465%" y2="89.046482%" id="linearGradient-1">
            <stop stop-color="#59FF71" offset="0%"></stop>
            <stop stop-color="#12B34F" offset="100%"></stop>
        </linearGradient>
        <circle id="path-2" cx="15" cy="15" r="15"></circle>
        <filter x="-21.7%" y="-18.3%" width="143.3%" height="143.3%" filterUnits="objectBoundingBox" id="filter-3">
            <feOffset dx="0" dy="1" in="SourceAlpha" result="shadowOffsetOuter1"></feOffset>
            <feGaussianBlur stdDeviation="2" in="shadowOffsetOuter1" result="shadowBlurOuter1"></feGaussianBlur>
            <feColorMatrix values="0 0 0 0 0   0 0 0 0 0   0 0 0 0 0  0 0 0 0.2 0" type="matrix" in="shadowBlurOuter1"></feColorMatrix>
        </filter>
    </defs>
    <g id="wa" stroke="none" stroke-width="1" fill="none" fill-rule="evenodd">
        <g id="Oval">
            <use fill="black" fill-opacity="1" filter="url(#filter-3)" xlink:href="#path-2"></use>
            <use fill="url(#linearGradient-1)" fill-rule="evenodd" xlink:href="#path-2"></use>
        </g>
        <path d="M21.4537946,8.4703125 C19.8638393,6.8765625 17.7464286,6 15.4962054,6 C10.8515625,6 7.07209821,9.77946429 7.07209821,14.4241071 C7.07209821,15.9078125 7.45915179,17.3573661 8.1953125,18.6361607 L7,23 L11.4662946,21.8274554 C12.6957589,22.4991071 14.0808036,22.8520089 15.4924107,22.8520089 L15.4962054,22.8520089 C20.1370536,22.8520089 24,19.0725446 24,14.4279018 C24,12.1776786 23.04375,10.0640625 21.4537946,8.4703125 Z M15.4962054,21.4328125 C14.2363839,21.4328125 13.003125,21.0950893 11.9292411,20.4575893 L11.675,20.3058036 L9.02633929,21.0002232 L9.73214286,18.4160714 L9.56517857,18.1504464 C8.86316964,17.0348214 8.49508929,15.7484375 8.49508929,14.4241071 C8.49508929,10.5649554 11.6370536,7.42299107 15.5,7.42299107 C17.3707589,7.42299107 19.1276786,8.1515625 20.4482143,9.47589286 C21.76875,10.8002232 22.5808036,12.5571429 22.5770222,14.4279018 C22.5770222,18.2908482 19.3553571,21.4328125 15.4962054,21.4328125 Z M19.3363839,16.1886161 C19.1276786,16.0823661 18.0917411,15.5738839 17.8982143,15.5055804 C17.7046875,15.4334821 17.5642857,15.3993304 17.4238839,15.6118304 C17.2834821,15.8243304 16.88125,16.2948661 16.7560268,16.4390625 C16.6345982,16.5794643 16.509375,16.5984375 16.3006696,16.4921875 C15.0636161,15.8736607 14.2515625,15.3879464 13.4357143,13.9877232 C13.2194196,13.6158482 13.6520089,13.6424107 14.0542411,12.8379464 C14.1225446,12.6975446 14.0883929,12.5761161 14.0352679,12.4698661 C13.9821429,12.3636161 13.5609375,11.3276786 13.3863839,10.9064732 C13.215625,10.4966518 13.0410714,10.5535714 12.9120536,10.5459821 C12.790625,10.5383929 12.6502232,10.5383929 12.5098214,10.5383929 C12.3694196,10.5383929 12.1417411,10.5915179 11.9482143,10.8002232 C11.7546875,11.0127232 11.2120536,11.5212054 11.2120536,12.5571429 C11.2120536,13.5930804 11.9671875,14.5948661 12.0696429,14.7352679 C12.1758929,14.8756696 13.5533482,17.0006696 15.6669643,17.9151786 C17.0026786,18.4919643 17.5263393,18.5412946 18.1941964,18.4426339 C18.6002232,18.3819196 19.4388393,17.9341518 19.6133929,17.4408482 C19.7879464,16.9475446 19.7879464,16.5263393 19.7348214,16.4390625 C19.6854911,16.3441964 19.5450893,16.2910714 19.3363839,16.1886161 Z" id="Shape" fill="#FFFFFF" fill-rule="nonzero"></path>
    </g>
</svg>