<?xml version="1.0" encoding="UTF-8"?>
<svg width="16px" height="15px" viewBox="0 0 16 15" version="1.1" xmlns="http://www.w3.org/2000/svg" xmlns:xlink="http://www.w3.org/1999/xlink">
    <title>icon/export copy</title>
    <defs>
        <filter id="filter-1">
            <feColorMatrix in="SourceGraphic" type="matrix" values="0 0 0 0 1.000000 0 0 0 0 0.349020 0 0 0 0 0.415686 0 0 0 1.000000 0"></feColorMatrix>
        </filter>
    </defs>
    <g id="Page-1" stroke="none" stroke-width="1" fill="none" fill-rule="evenodd">
        <g id="INVENTARIO/CREAR-CATALOGO-Copy" transform="translate(-294.000000, -399.000000)">
            <g id="icon/export-copy" transform="translate(294.500000, 399.500000)" filter="url(#filter-1)">
                <g>
                    <path d="M12.3099796,10.3478261 C12.1889462,10.3478261 12.0679128,10.3051772 11.975877,10.2192953 L10.8916195,9.21441799 L9.80736207,10.2192953 C9.62266007,10.3904749 9.3232285,10.3904749 9.1385265,10.2192953 C8.9538245,10.0481156 8.9538245,9.77060588 9.1385265,9.5994262 L10.5568866,8.2849065 C10.7415886,8.11372682 11.0410201,8.11372682 11.2257221,8.2849065 L12.6440822,9.5994262 C12.8287842,9.77060588 12.8287842,10.0481156 12.6440822,10.2192953 C12.5520464,10.3051772 12.431013,10.3478261 12.3099796,10.3478261 Z" id="Path" fill="#444A4F" fill-rule="nonzero"></path>
                    <path d="M10.8913043,12.173913 C10.6393043,12.173913 10.4347826,11.9788308 10.4347826,11.7384615 L10.4347826,8.83545151 C10.4347826,8.59508227 10.6393043,8.4 10.8913043,8.4 C11.1433043,8.4 11.3478261,8.59508227 11.3478261,8.83545151 L11.3478261,11.7384615 C11.3478261,11.9788308 11.1433043,12.173913 10.8913043,12.173913 Z" id="Path" fill="#444A4F" fill-rule="nonzero"></path>
                    <path d="M10.9565217,14 C8.72701003,14 6.91304348,12.3069645 6.91304348,10.226087 C6.91304348,8.14520936 8.72701003,6.45217391 10.9565217,6.45217391 C13.1860334,6.45217391 15,8.14520936 15,10.226087 C15,12.3069645 13.1860334,14 10.9565217,14 Z M10.9565217,7.32307692 C9.24146488,7.32307692 7.84615385,8.62536722 7.84615385,10.226087 C7.84615385,11.8268067 9.24146488,13.129097 10.9565217,13.129097 C12.6715786,13.129097 14.0668896,11.8268067 14.0668896,10.226087 C14.0668896,8.62536722 12.6715786,7.32307692 10.9565217,7.32307692 Z" id="Shape" fill="#444A4F" fill-rule="nonzero"></path>
                    <path d="M5.26523244,9.6173913 L0.734767564,9.6173913 C0.473175869,9.6173913 0.260869565,9.42650435 0.260869565,9.19130435 C0.260869565,8.95610435 0.473175869,8.76521739 0.734767564,8.76521739 L5.26523244,8.76521739 C5.52682413,8.76521739 5.73913043,8.95610435 5.73913043,9.19130435 C5.73913043,9.42650435 5.52682413,9.6173913 5.26523244,9.6173913 Z" id="Path" fill="#444A4F" fill-rule="nonzero"></path>
                    <ellipse id="Oval" fill="#444A4F" fill-rule="nonzero" cx="8.15217391" cy="2.9826087" rx="1" ry="1"></ellipse>
                    <ellipse id="Oval" fill="#444A4F" fill-rule="nonzero" cx="5.67391304" cy="2.9826087" rx="1" ry="1"></ellipse>
                    <ellipse id="Oval" fill="#444A4F" fill-rule="nonzero" cx="3.19565217" cy="2.9826087" rx="1" ry="1"></ellipse>
                    <path d="M6.39391304,14 L1.71376812,14 C0.768391304,14 0,13.28075 0,12.3958333 L0,1.60416667 C0,0.71925 0.768391304,0 1.71376812,0 L9.50362319,0 C10.449,0 11.2173913,0.71925 11.2173913,1.60416667 L11.2173913,4.8125 C11.2173913,5.054 11.008,5.25 10.75,5.25 L0.934782609,5.25 L0.934782609,12.3958333 C0.934782609,12.79775 1.2843913,13.125 1.71376812,13.125 L6.39391304,13.125 C6.65191304,13.125 6.86130435,13.321 6.86130435,13.5625 C6.86130435,13.804 6.65191304,14 6.39391304,14 Z M0.934782609,4.375 L10.2826087,4.375 L10.2826087,1.60416667 C10.2826087,1.20225 9.933,0.875 9.50362319,0.875 L1.71376812,0.875 C1.2843913,0.875 0.934782609,1.20225 0.934782609,1.60416667 L0.934782609,4.375 Z" id="Shape" fill="#444A4F" fill-rule="nonzero"></path>
                </g>
            </g>
        </g>
    </g>
</svg>