<?xml version="1.0" encoding="UTF-8"?>
<svg width="13px" height="16px" viewBox="0 0 13 16" version="1.1" xmlns="http://www.w3.org/2000/svg" xmlns:xlink="http://www.w3.org/1999/xlink">
    <title>iconos_internaIcon/trash Copy</title>
    <defs>
        <filter id="filter-1">
            <feColorMatrix in="SourceGraphic" type="matrix" values="0 0 0 0 1.000000 0 0 0 0 0.349020 0 0 0 0 0.415686 0 0 0 1.000000 0"></feColorMatrix>
        </filter>
    </defs>
    <g id="Page-1" stroke="none" stroke-width="1" fill="none" fill-rule="evenodd">
        <g id="INVENTARIO/CREAR-CATALOGO-Copy" transform="translate(-296.000000, -438.000000)">
            <g id="Icon/trash-Copy" transform="translate(296.000000, 438.000000)" filter="url(#filter-1)">
                <g id="Group" fill="#444A4F" fill-rule="nonzero">
                    <g id="send-to-trash">
                        <path d="M9.5,6 C9.2238281,6 9,6.17135169 9,6.38277512 L9,13.6172249 C9,13.8284988 9.2238281,14 9.5,14 C9.77617185,14 10,13.8284988 10,13.6172249 L10,6.38277512 C10,6.17135169 9.77617185,6 9.5,6 Z" id="Path"></path>
                        <path d="M3.5,6 C3.2238281,6 3,6.17135169 3,6.38277512 L3,13.6172249 C3,13.8284988 3.2238281,14 3.5,14 C3.77617185,14 4,13.8284988 4,13.6172249 L4,6.38277512 C4,6.17135169 3.77617185,6 3.5,6 Z" id="Path"></path>
                        <path d="M1.06464168,4.76338779 L1.06464168,13.9953283 C1.06464168,14.5409925 1.26480693,15.0534308 1.61447384,15.4211101 C1.96253005,15.7898139 2.44690954,15.9991218 2.95383869,16 L10.0461613,16 C10.5532369,15.9991218 11.0376164,15.7898139 11.3855262,15.4211101 C11.7351931,15.0534308 11.9353584,14.5409925 11.9353584,13.9953283 L11.9353584,4.76338779 C12.6304458,4.57896268 13.0808543,3.90771381 12.9878733,3.19474973 C12.894746,2.48193206 12.2872217,1.94870929 11.5679738,1.94856293 L9.64875935,1.94856293 L9.64875935,1.48018169 C9.65095573,1.08630234 9.49515774,0.708084489 9.21621492,0.42983677 C8.93727211,0.151735412 8.55831986,-0.00312313434 8.16428566,4.77534944e-05 L4.83571437,4.77534944e-05 C4.44168017,-0.00312313434 4.06272792,0.151735412 3.78378511,0.42983677 C3.50484229,0.708084489 3.3490443,1.08630234 3.35124071,1.48018169 L3.35124071,1.94856293 L1.43202621,1.94856293 C0.712778362,1.94870929 0.105254078,2.48193206 0.0121266719,3.19474973 C-0.0808542416,3.90771381 0.369554225,4.57896268 1.06464168,4.76338779 Z M10.0461613,15.25059 L2.95383869,15.25059 C2.31292912,15.25059 1.81434628,14.7002421 1.81434628,13.9953283 L1.81434628,4.79632084 L11.1856538,4.79632084 L11.1856538,13.9953283 C11.1856538,14.7002421 10.6870709,15.25059 10.0461613,15.25059 Z M4.10094531,1.48018169 C4.09845603,1.28507164 4.17518361,1.09728003 4.31370327,0.959546684 C4.45207647,0.821813336 4.64038116,0.746140464 4.83571437,0.749506964 L8.16428566,0.749506964 C8.35961883,0.746140464 8.54792356,0.821813336 8.68629676,0.959546684 C8.82481642,1.09713367 8.901544,1.28507164 8.89905475,1.48018169 L8.89905475,1.94856293 L4.10094531,1.94856293 L4.10094531,1.48018169 Z M1.43202621,2.6979729 L11.5679738,2.6979729 C11.9406297,2.6979729 12.242708,2.99993244 12.242708,3.37244188 C12.242708,3.74495133 11.9406297,4.04691086 11.5679738,4.04691086 L1.43202621,4.04691086 C1.05937029,4.04691086 0.757292073,3.74495133 0.757292073,3.37244188 C0.757292073,2.99993244 1.05937029,2.6979729 1.43202621,2.6979729 Z" id="Shape"></path>
                        <path d="M6.5,6 C6.2238281,6 6,6.17135169 6,6.38277512 L6,13.6172249 C6,13.8284988 6.2238281,14 6.5,14 C6.77617185,14 7,13.8284988 7,13.6172249 L7,6.38277512 C7,6.17135169 6.77617185,6 6.5,6 Z" id="Path"></path>
                    </g>
                </g>
            </g>
        </g>
    </g>
</svg>