<?xml version="1.0" encoding="UTF-8"?>
<svg width="24px" height="23px" viewBox="0 0 24 23" version="1.1" xmlns="http://www.w3.org/2000/svg" xmlns:xlink="http://www.w3.org/1999/xlink">
    <!-- Generator: Sketch 62 (91390) - https://sketch.com -->
    <title>iniciales_user</title>
    <desc>Created with Sketch.</desc>
    <g id="Page-1" stroke="none" stroke-width="1" fill="none" fill-rule="evenodd">
        <g id="USUARIOS/CLIENTES-inicio" transform="translate(-1326.000000, -10.000000)">
            <g id="iniciales_user" transform="translate(1326.000000, 10.000000)">
                <g>
                    <rect id="Rectangle-Copy-26" fill="#34BDF7" x="0" y="0" width="24" height="23" rx="11.5"></rect>
                    <path d="M7.16459228,15 C7.74660052,15 8.26682022,14.9250765 8.72525136,14.7752294 C9.18368251,14.6253823 9.57434557,14.4023955 9.89724055,14.1062691 C10.2201355,13.8101427 10.4672897,13.4408767 10.6387031,12.9984709 C10.8101165,12.5560652 10.8958232,12.0458716 10.8958232,11.4678899 C10.8958232,10.3119266 10.5609691,9.44495413 9.89126102,8.86697248 C9.22155291,8.28899083 8.28874518,8 7.09283784,8 L7.09283784,8 L5,8 L5,15 L7.16459228,15 Z M6.99716526,13.9938838 L6.38725251,13.9938838 L6.38725251,9.00611621 L6.99716526,9.00611621 C7.7864641,9.00611621 8.39637684,9.20234455 8.82690349,9.59480122 C9.25743013,9.9872579 9.47269345,10.6116208 9.47269345,11.4678899 C9.47269345,12.3312946 9.25942331,12.9681448 8.83288302,13.3784404 C8.40634274,13.788736 7.79443682,13.9938838 6.99716526,13.9938838 L6.99716526,13.9938838 Z M14.3313992,15 L14.3313992,11.7996942 C14.3313992,11.6355759 14.3254197,11.4571865 14.3134606,11.264526 C14.3015015,11.0718654 14.2855561,10.877421 14.2656243,10.6811927 C14.2456925,10.4849643 14.2257607,10.2923038 14.2058289,10.103211 C14.1858972,9.91411825 14.1679585,9.73751274 14.1520131,9.5733945 L14.1520131,9.5733945 L14.1998494,9.5733945 L14.8217212,11.2003058 L16.1133011,14.3470948 L16.9384772,14.3470948 L18.2180981,11.2003058 L18.851929,9.5733945 L18.8997652,9.5733945 C18.8838198,9.73751274 18.863888,9.91411825 18.8399699,10.103211 C18.8160517,10.2923038 18.7961199,10.4849643 18.7801745,10.6811927 C18.7642291,10.877421 18.7502768,11.0718654 18.7383178,11.264526 C18.7263587,11.4571865 18.7203791,11.6355759 18.7203791,11.7996942 L18.7203791,11.7996942 L18.7203791,15 L20,15 L20,8 L18.4214023,8 L17.070027,11.4250765 C16.9823271,11.6462793 16.9006068,11.8728338 16.824866,12.1047401 C16.7491252,12.3366463 16.6674049,12.5667686 16.579705,12.795107 L16.579705,12.795107 L16.5318687,12.795107 C16.4441688,12.5667686 16.3604553,12.3366463 16.2807282,12.1047401 C16.201001,11.8728338 16.1172875,11.6462793 16.0295876,11.4250765 L16.0295876,11.4250765 L14.6423351,8 L13.0756965,8 L13.0756965,15 L14.3313992,15 Z" id="DM" fill="#FFFFFF" fill-rule="nonzero"></path>
                </g>
            </g>
        </g>
    </g>
</svg>