<?xml version="1.0" encoding="UTF-8"?>
<svg width="17px" height="17px" viewBox="0 0 17 17" version="1.1" xmlns="http://www.w3.org/2000/svg" xmlns:xlink="http://www.w3.org/1999/xlink">
    <title>ampliacion copy</title>
    <defs>
        <filter id="filter-1">
            <feColorMatrix in="SourceGraphic" type="matrix" values="0 0 0 0 1.000000 0 0 0 0 0.349020 0 0 0 0 0.415686 0 0 0 1.000000 0"></feColorMatrix>
        </filter>
    </defs>
    <g id="ampliacion-copy" stroke="none" stroke-width="1" fill="none" fill-rule="evenodd">
        <g id="ampliacion_cupo" filter="url(#filter-1)">
            <g id="scale" fill="#FFFFFF" fill-rule="nonzero">
                <path d="M6.5078125,6.00976562 C4.77248437,6.00976562 3.02148438,6.47175391 3.02148438,7.50390625 L3.02148438,13.4804688 C3.02148438,14.5126211 4.77248437,14.9746094 6.5078125,14.9746094 C8.24314063,14.9746094 9.99414062,14.5126211 9.99414062,13.4804688 L9.99414062,7.50390625 C9.99414062,6.47175391 8.24314063,6.00976562 6.5078125,6.00976562 Z M8.99804688,9.45372656 C8.85195313,9.62668164 7.99717188,9.99414062 6.5078125,9.99414062 C5.01845313,9.99414062 4.16367188,9.62668164 4.01757812,9.45372656 L4.01757812,8.60030664 C4.68160742,8.87061328 5.59681836,8.99804688 6.5078125,8.99804688 C7.41880664,8.99804688 8.33401758,8.87061328 8.99804688,8.60030664 L8.99804688,9.45372656 Z M8.99804688,11.4459141 C8.85195313,11.6188691 7.99717188,11.9863281 6.5078125,11.9863281 C5.01845313,11.9863281 4.16367188,11.6188691 4.01757812,11.4459141 L4.01757812,10.5924941 C4.68160742,10.8628008 5.59681836,10.9902344 6.5078125,10.9902344 C7.41880664,10.9902344 8.33401758,10.8628008 8.99804688,10.5924941 L8.99804688,11.4459141 Z M6.5078125,7.00585938 C7.88438086,7.00585938 8.71900781,7.31979492 8.95285742,7.50390625 C8.71900781,7.68801758 7.88438086,8.00195312 6.5078125,8.00195312 C5.13124414,8.00195312 4.29661719,7.68801758 4.06276758,7.50390625 C4.29661719,7.31979492 5.13124414,7.00585938 6.5078125,7.00585938 Z M6.5078125,13.9785156 C5.01898438,13.9785156 4.16410352,13.6112559 4.01757812,13.4382676 L4.01757812,12.5847148 C4.68160742,12.8549883 5.59681836,12.9824219 6.5078125,12.9824219 C7.41880664,12.9824219 8.33401758,12.8549883 8.99804688,12.5846816 L8.99804688,13.4382344 C8.85152148,13.6112559 7.99664063,13.9785156 6.5078125,13.9785156 Z" id="Shape"></path>
                <path d="M17,4.515625 L17,0 L12.484375,0 L12.484375,0.99609375 L15.3518965,0.99609375 L12.3304121,4.01757812 L0.99609375,4.01757812 L0.99609375,0 L0,0 L0,17 L17,17 L17,16.0039062 L12.9824219,16.0039062 L12.9824219,4.77427734 L16.0039062,1.75279297 L16.0039062,4.515625 L17,4.515625 Z M0.99609375,16.0039062 L0.99609375,5.01367188 L11.9863281,5.01367188 L11.9863281,16.0039062 L0.99609375,16.0039062 Z" id="Shape"></path>
            </g>
        </g>
    </g>
</svg>