<?xml version="1.0" encoding="UTF-8"?>
<svg width="13px" height="16px" viewBox="0 0 13 16" version="1.1" xmlns="http://www.w3.org/2000/svg" xmlns:xlink="http://www.w3.org/1999/xlink">
    <title>auditoriaSVG</title>
    <g id="Symbols" stroke="none" stroke-width="1" fill="none" fill-rule="evenodd">
        <g id="sidebar" transform="translate(-31.000000, -500.000000)" fill="#FFFFFF">
            <g id="auditoria" transform="translate(31.000000, 500.000000)">
                <path d="M12.3594333,11.03125 C12.7131212,11.03125 13,10.7514648 13,10.40625 L13,4.0625 C13,2.68395997 11.8504831,1.5625 10.4377334,1.5625 L8.41994842,1.5625 L8.41994842,0.625 C8.41994842,0.279785156 8.13306965,0 7.77938176,0 L5.21711514,0 C4.86330215,0 4.57654849,0.279785156 4.57654849,0.625 L4.57654849,1.5625 L2.56226662,1.5625 C1.14939178,1.5625 0,2.68395997 0,4.0625 L0,13.5 C0,14.87854 1.14939178,16 2.56226662,16 L10.4377334,16 C11.8504831,16 13,14.87854 13,13.5 C13,13.1547852 12.7131212,12.875 12.3594333,12.875 C12.0056204,12.875 11.7188667,13.1547852 11.7188667,13.5 C11.7188667,14.189209 11.1441082,14.75 10.4377334,14.75 L2.56226662,14.75 C1.85589173,14.75 1.28113331,14.189209 1.28113331,13.5 L1.28113331,4.0625 C1.28113331,3.373291 1.85589173,2.8125 2.56226662,2.8125 L4.57654849,2.8125 L4.57654849,3.125 C4.57654849,4.15893556 5.43856105,5 6.49824845,5 C7.55781075,5 8.41994842,4.15893556 8.41994842,3.125 L8.41994842,2.8125 L10.4377334,2.8125 C11.1441082,2.8125 11.7188667,3.373291 11.7188667,4.0625 L11.7188667,10.40625 C11.7188667,10.7514648 12.0056204,11.03125 12.3594333,11.03125 Z M7.13881511,3.125 C7.13881511,3.4696045 6.85143589,3.75 6.49824845,3.75 C6.1449359,3.75 5.8576818,3.4696045 5.8576818,3.125 L5.8576818,1.25 L7.13881511,1.25 L7.13881511,3.125 Z M9.93816646,7.11328125 C10.2287986,7.31005859 10.3008623,7.69958497 10.0991839,7.98315431 L7.24916274,11.9895019 C7.24065518,12.0014648 7.23164721,12.0131836 7.22226393,12.0246582 C6.93450938,12.3741455 6.50650577,12.5916748 6.04810026,12.62146 C6.01181815,12.6237793 5.97541093,12.625 5.93925396,12.625 C5.51850675,12.625 5.10939486,12.4666748 4.80299882,12.1820068 C4.79999617,12.1791992 4.79699351,12.1765137 4.79411596,12.1737061 L3.1011183,10.539917 C2.84964583,10.2971191 2.84739386,9.90136719 3.09611388,9.65600587 C3.344959,9.41052247 3.75056779,9.40844725 4.00204027,9.65112306 L5.68965815,11.2796631 C5.78999693,11.3707275 5.90347229,11.3780518 5.96277476,11.3741455 C6.02020057,11.3704834 6.12679486,11.3497314 6.21262077,11.2543945 L9.04662778,7.27038575 C9.24843129,6.98681641 9.64753436,6.91638184 9.93816646,7.11328125 L9.93816646,7.11328125 Z" id="Shape"></path>
            </g>
        </g>
    </g>
</svg>