<?xml version="1.0" encoding="UTF-8"?>
<svg width="17px" height="17px" viewBox="0 0 17 17" version="1.1" xmlns="http://www.w3.org/2000/svg" xmlns:xlink="http://www.w3.org/1999/xlink">
    <title>encuestas</title>
    <g id="encuestas" stroke="none" stroke-width="1" fill="none" fill-rule="evenodd">
        <g id="Group" fill="#FFFFFF" fill-rule="nonzero">
            <g id="estadisticas">
                <path d="M14.5237535,9.02375353 L7.97624647,9.02375353 L7.97624647,2.47624647 C7.97624647,2.2116651 7.76458137,2 7.5,2 C3.36547507,2 0,5.36547507 0,9.5 C0,13.6345249 3.36547507,17 7.5,17 C11.6345249,17 15,13.6345249 15,9.5 C15,9.23894638 14.7848071,9.02375353 14.5237535,9.02375353 Z M7.5,16.0475071 C3.89111007,16.0475071 0.952492944,13.1088899 0.952492944,9.5 C0.952492944,6.04985889 3.6335842,3.21354657 7.02375353,2.9701317 L7.02375353,9.5 C7.02375353,9.76458137 7.23541863,9.97624647 7.5,9.97624647 L14.0298683,9.97624647 C13.7864534,13.3664158 10.9501411,16.0475071 7.5,16.0475071 Z" id="Shape"></path>
                <path d="M17,7.49756745 C16.9929235,5.67182663 16.3241928,3.91331269 15.1176471,2.54400708 C13.6881911,0.927023441 11.6360018,-1.13686838e-13 9.47766475,-1.13686838e-13 C9.21229544,-1.13686838e-13 9,0.212295444 9,0.47766475 L9,7.52233525 C9,7.78770456 9.21229544,8 9.47766475,8 L16.5223352,8 L16.5223352,8 C16.7877046,8 17,7.78770456 17,7.52233525 C17,7.51525874 17,7.50818222 17,7.49756745 Z M10,7 L10,1 C11.6853147,1.12237762 13.2657343,1.9020979 14.3916084,3.17832168 C15.3356643,4.24475524 15.8951049,5.58741259 16,7 L10,7 Z" id="Shape"></path>
            </g>
        </g>
    </g>
</svg>