<?xml version="1.0" encoding="UTF-8"?>
<svg width="17px" height="17px" viewBox="0 0 17 17" version="1.1" xmlns="http://www.w3.org/2000/svg" xmlns:xlink="http://www.w3.org/1999/xlink">
    <title>pedidos copy</title>
    <defs>
        <filter id="filter-1">
            <feColorMatrix in="SourceGraphic" type="matrix" values="0 0 0 0 1.000000 0 0 0 0 0.349020 0 0 0 0 0.415686 0 0 0 1.000000 0"></feColorMatrix>
        </filter>
    </defs>
    <g id="pedidos-copy" stroke="none" stroke-width="1" fill="none" fill-rule="evenodd">
        <g id="sidebar/pedidos" filter="url(#filter-1)">
            <g id="pedidos" fill="#FFFFFF" fill-rule="nonzero">
                <path d="M16.9966797,4.19251914 C16.9768242,4.00966944 16.8632031,3.84783733 16.6933691,3.76858143 L8.72461914,0.0498296142 C8.58221094,-0.0166098714 8.41772266,-0.0166098714 8.27531445,0.0498296142 L0.306564453,3.76858143 C0.136763672,3.84783733 0.0231425781,4.00963624 0.00325390625,4.19251914 C0.00282226563,4.1963375 0,4.24720471 0,4.24999377 L0,13.2812482 C0,13.4984631 0.132248047,13.6938304 0.333957031,13.7744808 L8.30270703,16.9619824 C8.36602539,16.9873164 8.4330293,17 8.5,17 C8.5669707,17 8.63397461,16.9873496 8.69729297,16.9619824 L16.666043,13.7744808 C16.867752,13.6938304 17,13.4984631 17,13.2812482 L17,4.24999377 C17,4.24720471 16.9971113,4.1963043 16.9966797,4.19251914 Z M8.5,1.11747662 L15.132125,4.21247422 L12.5783398,5.23400207 L5.8214043,2.36750848 L8.5,1.11747662 Z M4.52591797,2.97207128 L11.1780313,5.79410586 L8.5,6.8653056 L1.867875,4.21247422 L4.52591797,2.97207128 Z M1.0625,5.03465041 L7.96875,7.79715176 L7.96875,15.6840599 L1.0625,12.9215586 L1.0625,5.03465041 Z M9.03125,15.6840931 L9.03125,7.79715176 L15.9375,5.03465041 L15.9375,12.9215586 L9.03125,15.6840931 Z" id="Shape"></path>
            </g>
        </g>
    </g>
</svg>