<?xml version="1.0" encoding="UTF-8"?>
<svg width="17px" height="17px" viewBox="0 0 17 17" version="1.1" xmlns="http://www.w3.org/2000/svg" xmlns:xlink="http://www.w3.org/1999/xlink">
    <title>pqrs</title>
    <g id="pqrs" stroke="none" stroke-width="1" fill="none" fill-rule="evenodd" stroke-linecap="round" stroke-linejoin="round">
        <g id="Group" stroke="#FFFFFF" stroke-width="1.10869565">
            <g id="conversation-chat-1">
                <path d="M7.76086957,13.3043478 C7.14855386,13.3043478 6.65217391,12.8079679 6.65217391,12.1956522 L6.65217391,6.65217391 C6.65217391,6.03985821 7.14855386,5.54347826 7.76086957,5.54347826 L15.5217391,5.54347826 C16.1340548,5.54347826 16.6304348,6.03985821 16.6304348,6.65217391 L16.6304348,12.1956522 C16.6304348,12.8079679 16.1340548,13.3043478 15.5217391,13.3043478 L14.4130435,13.3043478 L14.4130435,16.6304348 L11.0869565,13.3043478 L7.76086957,13.3043478 Z" id="Path"></path>
                <path d="M4.43478261,8.86956522 L2.2173913,11.0869565 L2.2173913,7.76086957 L1.10869565,7.76086957 C0.496379951,7.76086957 0,7.26448961 0,6.65217391 L0,1.10869565 C0,0.496379951 0.496379951,0 1.10869565,0 L8.86956522,0 C9.48188092,0 9.97826087,0.496379951 9.97826087,1.10869565 L9.97826087,3.32608696" id="Path"></path>
            </g>
        </g>
    </g>
</svg>