<?xml version="1.0" encoding="UTF-8"?>
<svg width="17px" height="16px" viewBox="0 0 17 16" version="1.1" xmlns="http://www.w3.org/2000/svg" xmlns:xlink="http://www.w3.org/1999/xlink">
    <title>showroom copy</title>
    <defs>
        <filter id="filter-1">
            <feColorMatrix in="SourceGraphic" type="matrix" values="0 0 0 0 1.000000 0 0 0 0 0.349020 0 0 0 0 0.415686 0 0 0 1.000000 0"></feColorMatrix>
        </filter>
    </defs>
    <g id="showroom-copy" stroke="none" stroke-width="1" fill="none" fill-rule="evenodd">
        <g id="star" filter="url(#filter-1)">
            <g fill="#FFFFFF" fill-rule="nonzero" id="Shape">
                <path d="M3.80496833,15.9737338 C3.61871477,15.9737338 3.43375822,15.9168172 3.27590963,15.8050169 C2.98187287,15.5962805 2.84451734,15.2375029 2.92454411,14.8913028 L4.01820013,10.1724373 L0.309212043,6.98638053 C0.0365762402,6.75325131 -0.0675752746,6.38405594 0.0443584557,6.04624094 C0.156292153,5.70906114 0.460834887,5.4703419 0.821409333,5.43769111 L5.72885349,5.00128851 L7.66908125,0.553793041 C7.81214371,0.227031013 8.13795774,0.0160077984 8.49995893,0.0160077984 C8.86196008,0.0160077984 9.18777411,0.227031013 9.33083657,0.55303075 L11.2710643,5.00128851 L16.1777303,5.43769111 C16.5390829,5.46957964 16.8436257,5.70906114 16.9555594,6.04624094 C17.0674931,6.38342072 16.9639901,6.75325131 16.6913543,6.98638053 L12.9823662,10.1718021 L14.0760222,14.8905406 C14.1561787,15.2375029 14.0186935,15.5962805 13.7247864,15.8043816 C13.4315278,16.0124828 13.0404732,16.0284906 12.7316502,15.8466879 L8.49995893,13.3696742 L4.26826758,15.8480854 C4.12520512,15.9313005 3.9658001,15.9737338 3.80496833,15.9737338 Z M8.49995893,12.3026158 C8.66079069,12.3026158 8.82006599,12.344922 8.96325815,12.4281371 L12.9569444,14.7678142 L11.9247676,10.3139665 C11.8510963,9.99698696 11.9609548,9.66603243 12.2110222,9.45157897 L15.713134,6.4431323 L11.0797523,6.03099544 C10.7461561,6.00113964 10.459253,5.79570645 10.3289015,5.49460767 L8.49995893,1.29751966 L6.66881142,5.49524293 C6.53988661,5.79430894 6.25298346,5.99974213 5.92016548,6.02959792 L1.28613533,6.44173479 L4.78811736,9.45018146 C5.03896302,9.66527014 5.14869181,9.99558945 5.07437197,10.3133312 L4.04297341,14.7670519 L8.03665964,12.4281371 C8.1797221,12.344922 8.33912716,12.3026158 8.49995893,12.3026158 Z"></path>
            </g>
        </g>
    </g>
</svg>